<svg width="42" height="37" viewBox="0 0 42 37" fill="none" xmlns="http://www.w3.org/2000/svg">
<path d="M6.38462 35V33.7446H0.230769V35H6.38462ZM5.15385 33.7692H6.40923V27.6154H5.15385V33.7692ZM6.38462 27.5662V26.36H0.230769V27.5662H6.38462ZM0.230769 33.7692H1.48615V27.6154H0.230769V33.7692ZM6.38462 36.2308V34.9754H5.15385V36.2308H6.38462ZM3.92308 33.7692V32.5138H2.69231V33.7692H3.92308ZM6.38462 22.6923V0.53846H3.92308V22.6923H6.38462ZM2.69231 22.6923V0.53846H0.230769V22.6923H2.69231ZM10.5553 26.3846H9.32452V35H10.5799L10.5553 26.3846ZM10.5553 33.7692L10.5799 35H14.2722L14.2476 33.7692H10.5553ZM15.4784 26.3846H14.2476V35H15.4784V26.3846ZM14.2476 22.6923V0.53846H10.5553V22.6923H14.2476ZM22.8101 35H24.0409V27.6154H22.8101V35ZM17.887 35H19.1178V27.6154H17.887V35ZM24.0409 27.5908V26.3846H17.887V27.5908H24.0409ZM22.8101 31.3077V30.0769H19.1178V31.3077H22.8101ZM19.1178 22.6923V0.53846H17.887V22.6923H19.1178ZM24.0409 22.6923V0.53846H20.3486V22.6923H24.0409ZM29.4423 35H30.6977V26.3846H29.4423V35ZM33.1346 27.6154V26.3846H30.6731V27.6154H33.1346ZM29.4423 27.6154V26.3846H26.9808V27.6154H29.4423ZM30.6731 22.6923V0.53846H29.4423V22.6923H30.6731ZM33.1346 22.6923V0.53846H31.9038V22.6923H33.1346ZM28.2115 22.6923V0.53846H26.9808V22.6923H28.2115ZM41.1346 35V33.7446H34.9808V35H41.1346ZM39.9038 33.7692H41.1592V27.6154H39.9038V33.7692ZM41.1346 27.5662V26.36H34.9808V27.5662H41.1346ZM34.9808 33.7692H36.2362V27.6154H34.9808V33.7692ZM41.1346 22.6923V0.53846H39.9038V22.6923H41.1346ZM38.6731 22.6923V0.53846H34.9808V22.6923H38.6731Z" fill="white" fill-opacity="0.3"/>
</svg>
