<svg width="222" height="227" viewBox="0 0 222 227" fill="none" xmlns="http://www.w3.org/2000/svg">
<g filter="url(#filter0_d_18_22)">
<path d="M45.5 24V68.824L12.3768 35.9538C8.47642 32.0832 6.55382 26.9732 6.61382 21.8808C7.66999 12.1081 15.9465 4.5 26 4.5C36.7696 4.5 45.5 13.2304 45.5 24ZM8.85486 39.5028L45.5 75.8682V117.5H24C16.9318 117.5 10.6249 120.759 6.5 125.857V36.8012C7.20808 37.7442 7.99304 38.6476 8.85486 39.5028ZM24 122.5H45.5V138C45.5 148.77 36.7696 157.5 26 157.5C15.575 157.5 7.06069 149.319 6.52659 139.027C7.03139 129.815 14.6615 122.5 24 122.5ZM40.8346 157.5C46.7087 153.024 50.5 145.955 50.5 138V122.5H92.4907L125.403 155.161C125.597 155.381 125.797 155.598 126.001 155.812L127.612 157.5H40.8346ZM50.5 24C50.5 21.9811 50.2558 20.0193 49.7954 18.1424L150.339 117.918C148.935 117.644 147.484 117.5 146 117.5H94.5505L50.5 73.7859V24ZM99.589 122.5H128.481C127.882 122.966 127.302 123.466 126.741 124.001C121.49 129.013 119.194 135.957 119.902 142.658L99.589 122.5ZM137.271 157.5C134.774 156.561 132.43 155.091 130.414 153.09L129.05 151.736C122.965 144.724 123.407 134.096 130.194 127.618C137.185 120.944 148.262 121.202 154.936 128.194L163.222 136.875C163.405 137.889 163.5 138.933 163.5 140C163.5 149.665 155.665 157.5 146 157.5H137.271ZM161.54 156.506C165.493 152.523 167.796 147.523 168.453 142.355L210.563 186.473C217.237 193.465 216.979 204.542 209.987 211.215C202.996 217.889 191.919 217.631 185.245 210.639L140.181 163.427C147.73 164.659 155.742 162.349 161.54 156.506Z" stroke="black" stroke-width="5" shape-rendering="crispEdges"/>
</g>
<defs>
<filter id="filter0_d_18_22" x="0" y="0.112473" width="221.904" height="226.444" filterUnits="userSpaceOnUse" color-interpolation-filters="sRGB">
<feFlood flood-opacity="0" result="BackgroundImageFix"/>
<feColorMatrix in="SourceAlpha" type="matrix" values="0 0 0 0 0 0 0 0 0 0 0 0 0 0 0 0 0 0 127 0" result="hardAlpha"/>
<feOffset dy="4"/>
<feGaussianBlur stdDeviation="2"/>
<feComposite in2="hardAlpha" operator="out"/>
<feColorMatrix type="matrix" values="0 0 0 0 0 0 0 0 0 0 0 0 0 0 0 0 0 0 0.25 0"/>
<feBlend mode="normal" in2="BackgroundImageFix" result="effect1_dropShadow_18_22"/>
<feBlend mode="normal" in="SourceGraphic" in2="effect1_dropShadow_18_22" result="shape"/>
</filter>
</defs>
</svg>
