<svg width="323" height="330" viewBox="0 0 323 330" fill="none" xmlns="http://www.w3.org/2000/svg">
<path d="M61 135C101.4 178.2 130.5 153 140 135M252 135C211.6 176.655 182.5 152.356 173 135M73 251C137.8 212.6 206 235 232 251M301 60.5001L312.321 83.5783C313.313 85.5994 312.859 88.0822 310.987 89.3323C303.549 94.2986 296.498 93.3916 292.196 91.5217C290.452 90.7641 289.711 88.8161 290.046 86.945L292 76.0001M300 175C300 255.081 235.081 320 155 320C74.9187 320 10 255.081 10 175C10 94.9188 74.9187 30.0001 155 30.0001C235.081 30.0001 300 94.9188 300 175ZM271.429 14.0034L258.201 47.9214C257.473 49.7884 257.926 51.936 259.432 53.2585C275.197 67.1059 287.064 62.0906 292.433 56.4208C293.508 55.2852 293.714 53.6271 293.228 52.1407L280.839 14.2657C279.38 9.80497 273.134 9.6309 271.429 14.0034Z" stroke="#FF0000" stroke-width="20"/>
</svg>
