<svg width="267" height="246" viewBox="0 0 267 246" fill="none" xmlns="http://www.w3.org/2000/svg">
<path d="M4 75.0387C106 -60.9613 169 59.5387 184.5 75.0387C200 90.5387 160 113.039 114.5 136.539C78.1 155.339 74.3333 186.705 77 200.039M4.5 72.5H34L86 41L138.5 63.5L135.5 94.5L70 97.5L37 155L70 199.5L80.5 197M87 226C87 234.284 80.2843 241 72 241C63.7157 241 57 234.284 57 226C57 217.716 63.7157 211 72 211C80.2843 211 87 217.716 87 226ZM184 25L259.5 7L213.5 181H181.5L208.5 78L184 25ZM211 216C211 225.665 203.165 233.5 193.5 233.5C183.835 233.5 176 225.665 176 216C176 206.335 183.835 198.5 193.5 198.5C203.165 198.5 211 206.335 211 216Z" stroke="url(#paint0_linear_30_8)" stroke-width="10"/>
<defs>
<linearGradient id="paint0_linear_30_8" x1="131.75" y1="7" x2="131.75" y2="241" gradientUnits="userSpaceOnUse">
<stop stop-color="#FF9900"/>
<stop offset="1" stop-color="#FF9900" stop-opacity="0"/>
</linearGradient>
</defs>
</svg>
